# xmcd CD database file
#
# Track frame offsets:
#	150
#	13854
#	27359
#	41606
#	55438
#	70337
#	83283
#	98648
#	112061
#	124721
#	140318
#	155570
#	170961
#	186050
#	200260
#	214895
#
# Disc length: 3072 seconds
#
# Revision: 0
# Processed by: cddbd v1.4PL0 Copyright (c) Steve Scherf et al.
# Submitted via: CdAid (MTCDDB.DLL V2003.01.23)
#
DISCID=e10bfe10
DTITLE=Louis Armstrong - His Early Hits
DYEAR=1990
DGENRE=Blues
TTITLE0=Struttin with some barbecue
TTITLE1=Hotter than that
TTITLE2=Willie the weeper
TTITLE3=Alligator Crawl
TTITLE4=West End Blues
TTITLE5=Muggles
TTITLE6=Savoy Blues
TTITLE7=Heebie Jeebies
TTITLE8=I ain t got nobody
TTITLE9=Mahogany Hall Stomp
TTITLE10=St James Infirmary
TTITLE11=Bessie couldn t help it
TTITLE12=Dinah
TTITLE13=I m a Ding Dong Daddy
TTITLE14=Memories of you
TTITLE15=Bye bye Blues
EXTD=YEAR: 1990 ID3G:  17 
EXTT0=
EXTT1=
EXTT2=
EXTT3=
EXTT4=
EXTT5=
EXTT6=
EXTT7=
EXTT8=
EXTT9=
EXTT10=
EXTT11=
EXTT12=
EXTT13=
EXTT14=
EXTT15=
PLAYORDER=
